<svg width="1640" height="1021" viewBox="0 0 1640 1021" fill="none" xmlns="http://www.w3.org/2000/svg">
<path d="M212.259 31.7954L177.102 162.406H165.597L200.753 31.7954H212.259ZM305.995 147.491C298.964 147.491 292.696 146.284 287.192 143.869C281.723 141.455 277.373 138.099 274.142 133.802C270.945 129.469 269.205 124.445 268.921 118.727H282.345C282.629 122.243 283.836 125.279 285.967 127.836C288.097 130.357 290.885 132.31 294.33 133.695C297.774 135.08 301.592 135.773 305.782 135.773C310.47 135.773 314.624 134.956 318.247 133.322C321.869 131.689 324.71 129.416 326.769 126.504C328.829 123.592 329.859 120.219 329.859 116.384C329.859 112.371 328.865 108.837 326.876 105.783C324.887 102.694 321.975 100.279 318.14 98.5391C314.305 96.799 309.617 95.929 304.078 95.929H295.342V84.2102H304.078C308.41 84.2102 312.21 83.429 315.477 81.8665C318.779 80.304 321.354 78.1023 323.2 75.2614C325.083 72.4205 326.024 69.0824 326.024 65.2472C326.024 61.554 325.207 58.3402 323.573 55.6058C321.94 52.8714 319.632 50.7408 316.649 49.2138C313.701 47.6868 310.221 46.9233 306.208 46.9233C302.444 46.9233 298.893 47.6158 295.555 49.0007C292.252 50.3501 289.553 52.321 287.458 54.9134C285.363 57.4702 284.227 60.5597 284.049 64.1818H271.265C271.478 58.4645 273.2 53.4574 276.432 49.1605C279.664 44.8281 283.889 41.4545 289.11 39.0398C294.365 36.625 300.136 35.4176 306.421 35.4176C313.169 35.4176 318.957 36.7848 323.786 39.5192C328.616 42.218 332.327 45.7869 334.919 50.2259C337.512 54.6648 338.808 59.4588 338.808 64.608C338.808 70.7514 337.192 75.9893 333.96 80.3217C330.764 84.6541 326.414 87.6548 320.91 89.3239V90.1761C327.799 91.3125 333.179 94.2422 337.05 98.9652C340.921 103.653 342.856 109.459 342.856 116.384C342.856 122.314 341.24 127.641 338.009 132.364C334.813 137.051 330.445 140.744 324.905 143.443C319.365 146.142 313.062 147.491 305.995 147.491ZM412.156 81.4403V69.9347H477.781V81.4403H412.156ZM412.156 112.974V101.469H477.781V112.974H412.156ZM583.477 147.491C575.451 147.491 568.615 145.308 562.969 140.94C557.322 136.536 553.008 130.162 550.025 121.817C547.042 113.436 545.55 103.315 545.55 91.4545C545.55 79.6648 547.042 69.5973 550.025 61.2521C553.043 52.8714 557.376 46.4794 563.022 42.076C568.704 37.6371 575.522 35.4176 583.477 35.4176C591.431 35.4176 598.232 37.6371 603.878 42.076C609.56 46.4794 613.892 52.8714 616.875 61.2521C619.893 69.5973 621.403 79.6648 621.403 91.4545C621.403 103.315 619.911 113.436 616.928 121.817C613.945 130.162 609.631 136.536 603.984 140.94C598.338 145.308 591.502 147.491 583.477 147.491ZM583.477 135.773C591.431 135.773 597.61 131.937 602.013 124.267C606.417 116.597 608.619 105.659 608.619 91.4545C608.619 82.0085 607.607 73.9652 605.582 67.3246C603.594 60.6839 600.717 55.6236 596.953 52.1435C593.224 48.6634 588.732 46.9233 583.477 46.9233C575.593 46.9233 569.432 50.8118 564.993 58.5888C560.554 66.3303 558.335 77.2855 558.335 91.4545C558.335 100.901 559.329 108.926 561.317 115.531C563.306 122.136 566.165 127.161 569.893 130.606C573.658 134.05 578.185 135.773 583.477 135.773ZM656.799 131.085L655.946 136.838C655.343 140.886 654.419 145.219 653.176 149.835C651.969 154.452 650.708 158.802 649.395 162.886C648.081 166.969 646.998 170.219 646.145 172.634H636.557C637.019 170.361 637.623 167.36 638.368 163.631C639.114 159.903 639.86 155.73 640.605 151.114C641.387 146.533 642.026 141.845 642.523 137.051L643.162 131.085H656.799ZM712.636 147.491C705.605 147.491 699.337 146.284 693.833 143.869C688.364 141.455 684.014 138.099 680.782 133.802C677.586 129.469 675.846 124.445 675.562 118.727H688.985C689.269 122.243 690.477 125.279 692.607 127.836C694.738 130.357 697.526 132.31 700.97 133.695C704.415 135.08 708.232 135.773 712.423 135.773C717.11 135.773 721.265 134.956 724.887 133.322C728.509 131.689 731.35 129.416 733.41 126.504C735.47 123.592 736.499 120.219 736.499 116.384C736.499 112.371 735.505 108.837 733.517 105.783C731.528 102.694 728.616 100.279 724.781 98.5391C720.945 96.799 716.258 95.929 710.718 95.929H701.982V84.2102H710.718C715.051 84.2102 718.85 83.429 722.117 81.8665C725.42 80.304 727.994 78.1023 729.841 75.2614C731.723 72.4205 732.664 69.0824 732.664 65.2472C732.664 61.554 731.847 58.3402 730.214 55.6058C728.58 52.8714 726.272 50.7408 723.289 49.2138C720.342 47.6868 716.862 46.9233 712.849 46.9233C709.085 46.9233 705.534 47.6158 702.195 49.0007C698.893 50.3501 696.194 52.321 694.099 54.9134C692.004 57.4702 690.867 60.5597 690.69 64.1818H677.906C678.119 58.4645 679.841 53.4574 683.073 49.1605C686.304 44.8281 690.53 41.4545 695.75 39.0398C701.006 36.625 706.776 35.4176 713.062 35.4176C719.809 35.4176 725.597 36.7848 730.427 39.5192C735.257 42.218 738.968 45.7869 741.56 50.2259C744.152 54.6648 745.448 59.4588 745.448 64.608C745.448 70.7514 743.833 75.9893 740.601 80.3217C737.405 84.6541 733.055 87.6548 727.551 89.3239V90.1761C734.44 91.3125 739.82 94.2422 743.691 98.9652C747.561 103.653 749.497 109.459 749.497 116.384C749.497 122.314 747.881 127.641 744.649 132.364C741.453 137.051 737.085 140.744 731.546 143.443C726.006 146.142 719.703 147.491 712.636 147.491ZM808.144 147.491C801.112 147.491 794.845 146.284 789.34 143.869C783.872 141.455 779.521 138.099 776.29 133.802C773.094 129.469 771.354 124.445 771.07 118.727H784.493C784.777 122.243 785.985 125.279 788.115 127.836C790.246 130.357 793.034 132.31 796.478 133.695C799.923 135.08 803.74 135.773 807.931 135.773C812.618 135.773 816.773 134.956 820.395 133.322C824.017 131.689 826.858 129.416 828.918 126.504C830.977 123.592 832.007 120.219 832.007 116.384C832.007 112.371 831.013 108.837 829.024 105.783C827.036 102.694 824.124 100.279 820.289 98.5391C816.453 96.799 811.766 95.929 806.226 95.929H797.49V84.2102H806.226C810.558 84.2102 814.358 83.429 817.625 81.8665C820.928 80.304 823.502 78.1023 825.349 75.2614C827.231 72.4205 828.172 69.0824 828.172 65.2472C828.172 61.554 827.355 58.3402 825.722 55.6058C824.088 52.8714 821.78 50.7408 818.797 49.2138C815.85 47.6868 812.369 46.9233 808.357 46.9233C804.593 46.9233 801.041 47.6158 797.703 49.0007C794.401 50.3501 791.702 52.321 789.607 54.9134C787.512 57.4702 786.375 60.5597 786.198 64.1818H773.414C773.627 58.4645 775.349 53.4574 778.58 49.1605C781.812 44.8281 786.038 41.4545 791.258 39.0398C796.514 36.625 802.284 35.4176 808.57 35.4176C815.317 35.4176 821.105 36.7848 825.935 39.5192C830.764 42.218 834.475 45.7869 837.068 50.2259C839.66 54.6648 840.956 59.4588 840.956 64.608C840.956 70.7514 839.34 75.9893 836.109 80.3217C832.913 84.6541 828.563 87.6548 823.058 89.3239V90.1761C829.948 91.3125 835.328 94.2422 839.198 98.9652C843.069 103.653 845.004 109.459 845.004 116.384C845.004 122.314 843.389 127.641 840.157 132.364C836.961 137.051 832.593 140.744 827.053 143.443C821.514 146.142 815.21 147.491 808.144 147.491ZM872.797 146.852C870.169 146.852 867.914 145.911 866.032 144.029C864.15 142.147 863.208 139.892 863.208 137.264C863.208 134.636 864.15 132.381 866.032 130.499C867.914 128.617 870.169 127.676 872.797 127.676C875.424 127.676 877.679 128.617 879.561 130.499C881.444 132.381 882.385 134.636 882.385 137.264C882.385 139.004 881.941 140.602 881.053 142.058C880.201 143.514 879.047 144.686 877.591 145.574C876.17 146.426 874.572 146.852 872.797 146.852ZM914.105 146.852C911.477 146.852 909.222 145.911 907.34 144.029C905.458 142.147 904.517 139.892 904.517 137.264C904.517 134.636 905.458 132.381 907.34 130.499C909.222 128.617 911.477 127.676 914.105 127.676C916.733 127.676 918.988 128.617 920.87 130.499C922.752 132.381 923.693 134.636 923.693 137.264C923.693 139.004 923.249 140.602 922.362 142.058C921.509 143.514 920.355 144.686 918.899 145.574C917.479 146.426 915.881 146.852 914.105 146.852ZM955.414 146.852C952.786 146.852 950.531 145.911 948.649 144.029C946.767 142.147 945.826 139.892 945.826 137.264C945.826 134.636 946.767 132.381 948.649 130.499C950.531 128.617 952.786 127.676 955.414 127.676C958.042 127.676 960.297 128.617 962.179 130.499C964.061 132.381 965.002 134.636 965.002 137.264C965.002 139.004 964.558 140.602 963.67 142.058C962.818 143.514 961.664 144.686 960.208 145.574C958.787 146.426 957.189 146.852 955.414 146.852Z" fill="#737370"/>
<path d="M56.3033 36.9091V146H33.2386V58.8018H32.5994L7.61719 74.4624V54.0078L34.6236 36.9091H56.3033Z" fill="#006CA9"/>
<path d="M1191.26 71V59.4943C1191.26 56.2273 1191.9 52.8892 1193.17 49.4801C1194.45 46.071 1196.14 42.8572 1198.23 39.8388C1200.33 36.8203 1202.6 34.299 1205.05 32.2749L1215.07 38.1875C1213.08 41.3125 1211.44 44.5795 1210.17 47.9886C1208.92 51.3977 1208.3 55.1974 1208.3 59.3878V71H1191.26ZM1218.16 71V59.4943C1218.16 56.2273 1218.8 52.8892 1220.07 49.4801C1221.35 46.071 1223.04 42.8572 1225.13 39.8388C1227.23 36.8203 1229.5 34.299 1231.95 32.2749L1241.97 38.1875C1239.98 41.3125 1238.34 44.5795 1237.07 47.9886C1235.82 51.3977 1235.2 55.1974 1235.2 59.3878V71H1218.16ZM1302.58 36.9091V146H1279.52V58.8018H1278.88L1253.9 74.4624V54.0078L1280.9 36.9091H1302.58ZM1347.74 36.9091V48.4148C1347.74 51.6818 1347.1 55.0199 1345.82 58.429C1344.58 61.8026 1342.91 64.9986 1340.82 68.017C1338.72 71 1336.43 73.5391 1333.95 75.6342L1323.93 69.7216C1325.71 66.9162 1327.27 63.8089 1328.62 60.3999C1330 56.9908 1330.7 53.0312 1330.7 48.5213V36.9091H1347.74ZM1374.53 36.9091V48.4148C1374.53 51.6818 1373.9 55.0199 1372.62 58.429C1371.37 61.8026 1369.71 64.9986 1367.61 68.017C1365.52 71 1363.21 73.5391 1360.69 75.6342L1350.67 69.7216C1352.48 66.9162 1354.06 63.8089 1355.41 60.3999C1356.8 56.9908 1357.49 53.0312 1357.49 48.5213V36.9091H1374.53Z" fill="#FA8F00"/>
<path d="M1089.68 151.966L1077.32 139.714L1118.76 98.2727L1077.32 56.8842L1089.68 44.5795L1143.37 98.2727L1089.68 151.966ZM1033.75 121.284V103.919H1126.17L1108.7 121.284H1033.75ZM1033.75 92.6264V75.2614H1108.7L1126.17 92.6264H1033.75Z" fill="#82D1F5"/>
<path d="M212.259 509.795L177.102 640.406H165.597L200.753 509.795H212.259ZM305.995 625.491C298.964 625.491 292.696 624.284 287.192 621.869C281.723 619.455 277.373 616.099 274.142 611.802C270.945 607.469 269.205 602.445 268.921 596.727H282.345C282.629 600.243 283.836 603.279 285.967 605.836C288.097 608.357 290.885 610.31 294.33 611.695C297.774 613.08 301.592 613.773 305.782 613.773C310.47 613.773 314.624 612.956 318.247 611.322C321.869 609.689 324.71 607.416 326.769 604.504C328.829 601.592 329.859 598.219 329.859 594.384C329.859 590.371 328.865 586.837 326.876 583.783C324.887 580.694 321.975 578.279 318.14 576.539C314.305 574.799 309.617 573.929 304.078 573.929H295.342V562.21H304.078C308.41 562.21 312.21 561.429 315.477 559.866C318.779 558.304 321.354 556.102 323.2 553.261C325.083 550.42 326.024 547.082 326.024 543.247C326.024 539.554 325.207 536.34 323.573 533.606C321.94 530.871 319.632 528.741 316.649 527.214C313.701 525.687 310.221 524.923 306.208 524.923C302.444 524.923 298.893 525.616 295.555 527.001C292.252 528.35 289.553 530.321 287.458 532.913C285.363 535.47 284.227 538.56 284.049 542.182H271.265C271.478 536.464 273.2 531.457 276.432 527.161C279.664 522.828 283.889 519.455 289.11 517.04C294.365 514.625 300.136 513.418 306.421 513.418C313.169 513.418 318.957 514.785 323.786 517.519C328.616 520.218 332.327 523.787 334.919 528.226C337.512 532.665 338.808 537.459 338.808 542.608C338.808 548.751 337.192 553.989 333.96 558.322C330.764 562.654 326.414 565.655 320.91 567.324V568.176C327.799 569.312 333.179 572.242 337.05 576.965C340.921 581.653 342.856 587.459 342.856 594.384C342.856 600.314 341.24 605.641 338.009 610.364C334.813 615.051 330.445 618.744 324.905 621.443C319.365 624.142 313.062 625.491 305.995 625.491ZM412.156 559.44V547.935H477.781V559.44H412.156ZM412.156 590.974V579.469H477.781V590.974H412.156ZM586.246 514.909V624H573.036V528.759H572.397L545.763 546.443V533.02L573.036 514.909H586.246ZM630.138 609.085L629.286 614.838C628.683 618.886 627.759 623.219 626.516 627.835C625.309 632.452 624.048 636.802 622.734 640.886C621.42 644.969 620.337 648.219 619.485 650.634H609.897C610.359 648.361 610.962 645.36 611.708 641.631C612.454 637.903 613.2 633.73 613.945 629.114C614.727 624.533 615.366 619.845 615.863 615.051L616.502 609.085H630.138ZM684.99 625.491C676.965 625.491 670.129 623.308 664.482 618.94C658.836 614.536 654.521 608.162 651.539 599.817C648.556 591.436 647.064 581.315 647.064 569.455C647.064 557.665 648.556 547.597 651.539 539.252C654.557 530.871 658.889 524.479 664.536 520.076C670.218 515.637 677.036 513.418 684.99 513.418C692.945 513.418 699.745 515.637 705.392 520.076C711.073 524.479 715.406 530.871 718.389 539.252C721.407 547.597 722.916 557.665 722.916 569.455C722.916 581.315 721.425 591.436 718.442 599.817C715.459 608.162 711.144 614.536 705.498 618.94C699.852 623.308 693.016 625.491 684.99 625.491ZM684.99 613.773C692.945 613.773 699.124 609.937 703.527 602.267C707.931 594.597 710.132 583.659 710.132 569.455C710.132 560.009 709.12 551.965 707.096 545.325C705.107 538.684 702.231 533.624 698.467 530.143C694.738 526.663 690.246 524.923 684.99 524.923C677.107 524.923 670.945 528.812 666.507 536.589C662.068 544.33 659.848 555.286 659.848 569.455C659.848 578.901 660.843 586.926 662.831 593.531C664.82 600.136 667.678 605.161 671.407 608.606C675.171 612.05 679.699 613.773 684.99 613.773ZM778.74 625.491C770.715 625.491 763.879 623.308 758.232 618.94C752.586 614.536 748.271 608.162 745.289 599.817C742.306 591.436 740.814 581.315 740.814 569.455C740.814 557.665 742.306 547.597 745.289 539.252C748.307 530.871 752.639 524.479 758.286 520.076C763.968 515.637 770.786 513.418 778.74 513.418C786.695 513.418 793.495 515.637 799.142 520.076C804.823 524.479 809.156 530.871 812.139 539.252C815.157 547.597 816.666 557.665 816.666 569.455C816.666 581.315 815.175 591.436 812.192 599.817C809.209 608.162 804.894 614.536 799.248 618.94C793.602 623.308 786.766 625.491 778.74 625.491ZM778.74 613.773C786.695 613.773 792.874 609.937 797.277 602.267C801.681 594.597 803.882 583.659 803.882 569.455C803.882 560.009 802.87 551.965 800.846 545.325C798.857 538.684 795.981 533.624 792.217 530.143C788.488 526.663 783.996 524.923 778.74 524.923C770.857 524.923 764.695 528.812 760.257 536.589C755.818 544.33 753.598 555.286 753.598 569.455C753.598 578.901 754.593 586.926 756.581 593.531C758.57 600.136 761.428 605.161 765.157 608.606C768.921 612.05 773.449 613.773 778.74 613.773ZM842.474 624.852C839.846 624.852 837.591 623.911 835.709 622.029C833.827 620.147 832.886 617.892 832.886 615.264C832.886 612.636 833.827 610.381 835.709 608.499C837.591 606.617 839.846 605.676 842.474 605.676C845.102 605.676 847.357 606.617 849.239 608.499C851.121 610.381 852.062 612.636 852.062 615.264C852.062 617.004 851.618 618.602 850.731 620.058C849.878 621.514 848.724 622.686 847.268 623.574C845.848 624.426 844.25 624.852 842.474 624.852ZM883.783 624.852C881.155 624.852 878.9 623.911 877.018 622.029C875.136 620.147 874.195 617.892 874.195 615.264C874.195 612.636 875.136 610.381 877.018 608.499C878.9 606.617 881.155 605.676 883.783 605.676C886.411 605.676 888.666 606.617 890.548 608.499C892.43 610.381 893.371 612.636 893.371 615.264C893.371 617.004 892.927 618.602 892.039 620.058C891.187 621.514 890.033 622.686 888.577 623.574C887.156 624.426 885.558 624.852 883.783 624.852ZM925.091 624.852C922.464 624.852 920.209 623.911 918.327 622.029C916.444 620.147 915.503 617.892 915.503 615.264C915.503 612.636 916.444 610.381 918.327 608.499C920.209 606.617 922.464 605.676 925.091 605.676C927.719 605.676 929.974 606.617 931.856 608.499C933.738 610.381 934.68 612.636 934.68 615.264C934.68 617.004 934.236 618.602 933.348 620.058C932.496 621.514 931.341 622.686 929.885 623.574C928.465 624.426 926.867 624.852 925.091 624.852Z" fill="#737370"/>
<path d="M49.1655 625.491C41.2109 625.491 34.1264 624.124 27.9119 621.39C21.733 618.62 16.8501 614.82 13.2635 609.991C9.71236 605.126 7.88352 599.515 7.77699 593.158H31.0014C31.1435 595.822 32.0135 598.165 33.6115 600.19C35.245 602.178 37.4112 603.723 40.1101 604.824C42.8089 605.925 45.8452 606.475 49.2188 606.475C52.7344 606.475 55.8416 605.854 58.5405 604.611C61.2393 603.368 63.3523 601.646 64.8793 599.444C66.4063 597.242 67.1697 594.703 67.1697 591.827C67.1697 588.915 66.353 586.34 64.7195 584.103C63.1215 581.83 60.8132 580.055 57.7947 578.776C54.8118 577.498 51.2607 576.859 47.1413 576.859H36.9673V559.92H47.1413C50.6214 559.92 53.6932 559.316 56.3565 558.109C59.0554 556.901 61.1506 555.232 62.642 553.102C64.1335 550.935 64.8793 548.414 64.8793 545.538C64.8793 542.803 64.2223 540.406 62.9084 538.347C61.63 536.251 59.8189 534.618 57.4751 533.446C55.1669 532.274 52.468 531.688 49.3786 531.688C46.2536 531.688 43.3949 532.256 40.8026 533.393C38.2102 534.494 36.1328 536.074 34.5703 538.134C33.0078 540.193 32.1733 542.608 32.0668 545.378H9.96094C10.0675 539.092 11.8608 533.553 15.3409 528.759C18.821 523.964 23.5085 520.218 29.4034 517.519C35.3338 514.785 42.0277 513.418 49.4851 513.418C57.0135 513.418 63.6009 514.785 69.2472 517.519C74.8935 520.254 79.2791 523.947 82.4041 528.599C85.5646 533.215 87.1271 538.4 87.0916 544.153C87.1271 550.261 85.2273 555.357 81.392 559.44C77.5923 563.524 72.6385 566.116 66.5305 567.217V568.07C74.5561 569.099 80.6641 571.887 84.8544 576.433C89.0803 580.942 91.1754 586.589 91.1399 593.371C91.1754 599.586 89.3821 605.108 85.7599 609.938C82.1733 614.767 77.2195 618.567 70.8984 621.337C64.5774 624.107 57.3331 625.491 49.1655 625.491Z" fill="#006CA9"/>
<path d="M22.3189 806.385C18.8033 806.385 15.7848 805.142 13.2635 802.656C10.7777 800.135 9.5348 797.116 9.5348 793.601C9.5348 790.121 10.7777 787.138 13.2635 784.652C15.7848 782.166 18.8033 780.923 22.3189 780.923C25.728 780.923 28.7109 782.166 31.2678 784.652C33.8246 787.138 35.103 790.121 35.103 793.601C35.103 795.945 34.4993 798.093 33.2919 800.046C32.12 801.964 30.5753 803.509 28.6577 804.68C26.7401 805.817 24.6271 806.385 22.3189 806.385ZM66.9966 806.385C63.481 806.385 60.4625 805.142 57.9412 802.656C55.4554 800.135 54.2125 797.116 54.2125 793.601C54.2125 790.121 55.4554 787.138 57.9412 784.652C60.4625 782.166 63.481 780.923 66.9966 780.923C70.4057 780.923 73.3887 782.166 75.9455 784.652C78.5023 787.138 79.7807 790.121 79.7807 793.601C79.7807 795.945 79.177 798.093 77.9696 800.046C76.7978 801.964 75.253 803.509 73.3354 804.68C71.4178 805.817 69.3049 806.385 66.9966 806.385ZM111.674 806.385C108.159 806.385 105.14 805.142 102.619 802.656C100.133 800.135 98.8903 797.116 98.8903 793.601C98.8903 790.121 100.133 787.138 102.619 784.652C105.14 782.166 108.159 780.923 111.674 780.923C115.083 780.923 118.066 782.166 120.623 784.652C123.18 787.138 124.458 790.121 124.458 793.601C124.458 795.945 123.855 798.093 122.647 800.046C121.475 801.964 119.931 803.509 118.013 804.68C116.096 805.817 113.983 806.385 111.674 806.385Z" fill="#737370"/>
<path d="M1191.26 549V537.494C1191.26 534.227 1191.9 530.889 1193.17 527.48C1194.45 524.071 1196.14 520.857 1198.23 517.839C1200.33 514.82 1202.6 512.299 1205.05 510.275L1215.07 516.188C1213.08 519.312 1211.44 522.58 1210.17 525.989C1208.92 529.398 1208.3 533.197 1208.3 537.388V549H1191.26ZM1218.16 549V537.494C1218.16 534.227 1218.8 530.889 1220.07 527.48C1221.35 524.071 1223.04 520.857 1225.13 517.839C1227.23 514.82 1229.5 512.299 1231.95 510.275L1241.97 516.188C1239.98 519.312 1238.34 522.58 1237.07 525.989C1235.82 529.398 1235.2 533.197 1235.2 537.388V549H1218.16ZM1255.76 624V514.909H1327.99V533.925H1278.83V559.92H1323.2V578.936H1278.83V624H1255.76ZM1343.08 624V542.182H1365.77V624H1343.08ZM1354.48 531.635C1351.11 531.635 1348.21 530.516 1345.8 528.279C1343.42 526.006 1342.23 523.29 1342.23 520.129C1342.23 517.004 1343.42 514.323 1345.8 512.086C1348.21 509.813 1351.11 508.677 1354.48 508.677C1357.85 508.677 1360.73 509.813 1363.11 512.086C1365.52 514.323 1366.73 517.004 1366.73 520.129C1366.73 523.29 1365.52 526.006 1363.11 528.279C1360.73 530.516 1357.85 531.635 1354.48 531.635ZM1383.52 624V610.47L1423.58 560.879V560.293H1384.91V542.182H1450.91V556.937L1413.3 605.303V605.889H1452.29V624H1383.52ZM1469.22 624V610.47L1509.27 560.879V560.293H1470.6V542.182H1536.6V556.937L1498.99 605.303V605.889H1537.98V624H1469.22ZM1574.35 514.909V526.415C1574.35 529.682 1573.71 533.02 1572.44 536.429C1571.19 539.803 1569.52 542.999 1567.43 546.017C1565.33 549 1563.04 551.539 1560.56 553.634L1550.54 547.722C1552.32 544.916 1553.88 541.809 1555.23 538.4C1556.62 534.991 1557.31 531.031 1557.31 526.521V514.909H1574.35ZM1601.15 514.909V526.415C1601.15 529.682 1600.51 533.02 1599.23 536.429C1597.99 539.803 1596.32 542.999 1594.22 546.017C1592.13 549 1589.82 551.539 1587.3 553.634L1577.28 547.722C1579.09 544.916 1580.67 541.809 1582.02 538.4C1583.41 534.991 1584.1 531.031 1584.1 526.521V514.909H1601.15Z" fill="#FA8F00"/>
<path d="M1089.68 629.966L1077.32 617.714L1118.76 576.273L1077.32 534.884L1089.68 522.58L1143.37 576.273L1089.68 629.966ZM1033.75 599.284V581.919H1126.17L1108.7 599.284H1033.75ZM1033.75 570.626V553.261H1108.7L1126.17 570.626H1033.75Z" fill="#82D1F5"/>
<path d="M212.259 270.795L177.102 401.406H165.597L200.753 270.795H212.259ZM305.995 386.491C298.964 386.491 292.696 385.284 287.192 382.869C281.723 380.455 277.373 377.099 274.142 372.802C270.945 368.469 269.205 363.445 268.921 357.727H282.345C282.629 361.243 283.836 364.279 285.967 366.836C288.097 369.357 290.885 371.31 294.33 372.695C297.774 374.08 301.592 374.773 305.782 374.773C310.47 374.773 314.624 373.956 318.247 372.322C321.869 370.689 324.71 368.416 326.769 365.504C328.829 362.592 329.859 359.219 329.859 355.384C329.859 351.371 328.865 347.837 326.876 344.783C324.887 341.694 321.975 339.279 318.14 337.539C314.305 335.799 309.617 334.929 304.078 334.929H295.342V323.21H304.078C308.41 323.21 312.21 322.429 315.477 320.866C318.779 319.304 321.354 317.102 323.2 314.261C325.083 311.42 326.024 308.082 326.024 304.247C326.024 300.554 325.207 297.34 323.573 294.606C321.94 291.871 319.632 289.741 316.649 288.214C313.701 286.687 310.221 285.923 306.208 285.923C302.444 285.923 298.893 286.616 295.555 288.001C292.252 289.35 289.553 291.321 287.458 293.913C285.363 296.47 284.227 299.56 284.049 303.182H271.265C271.478 297.464 273.2 292.457 276.432 288.161C279.664 283.828 283.889 280.455 289.11 278.04C294.365 275.625 300.136 274.418 306.421 274.418C313.169 274.418 318.957 275.785 323.786 278.519C328.616 281.218 332.327 284.787 334.919 289.226C337.512 293.665 338.808 298.459 338.808 303.608C338.808 309.751 337.192 314.989 333.96 319.322C330.764 323.654 326.414 326.655 320.91 328.324V329.176C327.799 330.312 333.179 333.242 337.05 337.965C340.921 342.653 342.856 348.459 342.856 355.384C342.856 361.314 341.24 366.641 338.009 371.364C334.813 376.051 330.445 379.744 324.905 382.443C319.365 385.142 313.062 386.491 305.995 386.491ZM412.156 320.44V308.935H477.781V320.44H412.156ZM412.156 351.974V340.469H477.781V351.974H412.156ZM583.477 386.491C575.451 386.491 568.615 384.308 562.969 379.94C557.322 375.536 553.008 369.162 550.025 360.817C547.042 352.436 545.55 342.315 545.55 330.455C545.55 318.665 547.042 308.597 550.025 300.252C553.043 291.871 557.376 285.479 563.022 281.076C568.704 276.637 575.522 274.418 583.477 274.418C591.431 274.418 598.232 276.637 603.878 281.076C609.56 285.479 613.892 291.871 616.875 300.252C619.893 308.597 621.403 318.665 621.403 330.455C621.403 342.315 619.911 352.436 616.928 360.817C613.945 369.162 609.631 375.536 603.984 379.94C598.338 384.308 591.502 386.491 583.477 386.491ZM583.477 374.773C591.431 374.773 597.61 370.937 602.013 363.267C606.417 355.597 608.619 344.659 608.619 330.455C608.619 321.009 607.607 312.965 605.582 306.325C603.594 299.684 600.717 294.624 596.953 291.143C593.224 287.663 588.732 285.923 583.477 285.923C575.593 285.923 569.432 289.812 564.993 297.589C560.554 305.33 558.335 316.286 558.335 330.455C558.335 339.901 559.329 347.926 561.317 354.531C563.306 361.136 566.165 366.161 569.893 369.606C573.658 373.05 578.185 374.773 583.477 374.773ZM656.799 370.085L655.946 375.838C655.343 379.886 654.419 384.219 653.176 388.835C651.969 393.452 650.708 397.802 649.395 401.886C648.081 405.969 646.998 409.219 646.145 411.634H636.557C637.019 409.361 637.623 406.36 638.368 402.631C639.114 398.903 639.86 394.73 640.605 390.114C641.387 385.533 642.026 380.845 642.523 376.051L643.162 370.085H656.799ZM712.29 386.491C707.815 386.42 703.341 385.568 698.866 383.935C694.392 382.301 690.308 379.549 686.615 375.678C682.922 371.772 679.956 366.499 677.719 359.858C675.482 353.182 674.363 344.801 674.363 334.716C674.363 325.057 675.269 316.499 677.08 309.041C678.891 301.548 681.519 295.245 684.964 290.131C688.408 284.982 692.563 281.076 697.428 278.413C702.329 275.749 707.851 274.418 713.994 274.418C720.102 274.418 725.535 275.643 730.294 278.093C735.088 280.508 738.994 283.881 742.013 288.214C745.031 292.546 746.984 297.536 747.872 303.182H734.875C733.667 298.281 731.324 294.215 727.844 290.984C724.363 287.752 719.747 286.136 713.994 286.136C705.542 286.136 698.884 289.812 694.019 297.163C689.189 304.513 686.757 314.83 686.721 328.111H687.574C689.562 325.092 691.924 322.518 694.658 320.387C697.428 318.221 700.482 316.552 703.82 315.38C707.158 314.208 710.692 313.622 714.42 313.622C720.67 313.622 726.388 315.185 731.572 318.31C736.757 321.399 740.912 325.678 744.037 331.147C747.162 336.58 748.724 342.812 748.724 349.844C748.724 356.591 747.215 362.77 744.197 368.381C741.178 373.956 736.934 378.395 731.466 381.697C726.032 384.964 719.64 386.562 712.29 386.491ZM712.29 374.773C716.764 374.773 720.777 373.654 724.328 371.417C727.915 369.18 730.738 366.179 732.797 362.415C734.893 358.651 735.94 354.46 735.94 349.844C735.94 345.334 734.928 341.232 732.904 337.539C730.915 333.81 728.163 330.845 724.648 328.643C721.167 326.442 717.19 325.341 712.716 325.341C709.342 325.341 706.199 326.016 703.287 327.365C700.376 328.679 697.819 330.49 695.617 332.798C693.451 335.107 691.746 337.752 690.503 340.735C689.26 343.683 688.639 346.79 688.639 350.057C688.639 354.389 689.651 358.437 691.675 362.202C693.735 365.966 696.54 369.002 700.091 371.31C703.678 373.619 707.744 374.773 712.29 374.773ZM805.893 386.491C801.419 386.42 796.944 385.568 792.47 383.935C787.995 382.301 783.912 379.549 780.218 375.678C776.525 371.772 773.56 366.499 771.323 359.858C769.086 353.182 767.967 344.801 767.967 334.716C767.967 325.057 768.873 316.499 770.684 309.041C772.495 301.548 775.123 295.245 778.567 290.131C782.012 284.982 786.167 281.076 791.032 278.413C795.932 275.749 801.454 274.418 807.598 274.418C813.706 274.418 819.139 275.643 823.897 278.093C828.691 280.508 832.598 283.881 835.616 288.214C838.635 292.546 840.588 297.536 841.476 303.182H828.478C827.271 298.281 824.927 294.215 821.447 290.984C817.967 287.752 813.35 286.136 807.598 286.136C799.146 286.136 792.488 289.812 787.623 297.163C782.793 304.513 780.36 314.83 780.325 328.111H781.177C783.166 325.092 785.527 322.518 788.262 320.387C791.032 318.221 794.086 316.552 797.424 315.38C800.762 314.208 804.295 313.622 808.024 313.622C814.274 313.622 819.991 315.185 825.176 318.31C830.36 321.399 834.515 325.678 837.64 331.147C840.765 336.58 842.328 342.812 842.328 349.844C842.328 356.591 840.819 362.77 837.8 368.381C834.782 373.956 830.538 378.395 825.069 381.697C819.636 384.964 813.244 386.562 805.893 386.491ZM805.893 374.773C810.368 374.773 814.38 373.654 817.931 371.417C821.518 369.18 824.341 366.179 826.401 362.415C828.496 358.651 829.544 354.46 829.544 349.844C829.544 345.334 828.532 341.232 826.507 337.539C824.519 333.81 821.767 330.845 818.251 328.643C814.771 326.442 810.794 325.341 806.319 325.341C802.946 325.341 799.803 326.016 796.891 327.365C793.979 328.679 791.422 330.49 789.221 332.798C787.054 335.107 785.35 337.752 784.107 340.735C782.864 343.683 782.243 346.79 782.243 350.057C782.243 354.389 783.255 358.437 785.279 362.202C787.338 365.966 790.144 369.002 793.695 371.31C797.282 373.619 801.348 374.773 805.893 374.773ZM867.523 385.852C864.895 385.852 862.64 384.911 860.758 383.029C858.876 381.147 857.935 378.892 857.935 376.264C857.935 373.636 858.876 371.381 860.758 369.499C862.64 367.617 864.895 366.676 867.523 366.676C870.151 366.676 872.406 367.617 874.288 369.499C876.17 371.381 877.111 373.636 877.111 376.264C877.111 378.004 876.667 379.602 875.779 381.058C874.927 382.514 873.773 383.686 872.317 384.574C870.897 385.426 869.299 385.852 867.523 385.852ZM908.832 385.852C906.204 385.852 903.949 384.911 902.067 383.029C900.185 381.147 899.244 378.892 899.244 376.264C899.244 373.636 900.185 371.381 902.067 369.499C903.949 367.617 906.204 366.676 908.832 366.676C911.46 366.676 913.714 367.617 915.597 369.499C917.479 371.381 918.42 373.636 918.42 376.264C918.42 378.004 917.976 379.602 917.088 381.058C916.236 382.514 915.082 383.686 913.626 384.574C912.205 385.426 910.607 385.852 908.832 385.852ZM950.14 385.852C947.512 385.852 945.257 384.911 943.375 383.029C941.493 381.147 940.552 378.892 940.552 376.264C940.552 373.636 941.493 371.381 943.375 369.499C945.257 367.617 947.512 366.676 950.14 366.676C952.768 366.676 955.023 367.617 956.905 369.499C958.787 371.381 959.728 373.636 959.728 376.264C959.728 378.004 959.284 379.602 958.397 381.058C957.544 382.514 956.39 383.686 954.934 384.574C953.514 385.426 951.916 385.852 950.14 385.852Z" fill="#737370"/>
<path d="M8.84233 385V368.381L47.674 332.425C50.9766 329.229 53.7464 326.353 55.9837 323.796C58.2564 321.239 59.9787 318.736 61.1506 316.286C62.3224 313.8 62.9084 311.119 62.9084 308.242C62.9084 305.046 62.1804 302.294 60.7244 299.986C59.2685 297.642 57.2798 295.849 54.7585 294.606C52.2372 293.327 49.3786 292.688 46.1825 292.688C42.8445 292.688 39.9325 293.363 37.4467 294.712C34.9609 296.062 33.0433 297.997 31.6939 300.518C30.3445 303.04 29.6697 306.04 29.6697 309.521H7.77699C7.77699 302.383 9.39276 296.186 12.6243 290.93C15.8558 285.675 20.3835 281.609 26.2074 278.732C32.0313 275.856 38.7429 274.418 46.3423 274.418C54.1548 274.418 60.9553 275.803 66.7436 278.572C72.5675 281.307 77.0952 285.107 80.3267 289.972C83.5582 294.837 85.174 300.412 85.174 306.697C85.174 310.817 84.3572 314.883 82.7237 318.896C81.1257 322.908 78.267 327.365 74.1477 332.266C70.0284 337.131 64.2223 342.972 56.7294 349.79L40.8026 365.398V366.143H86.6122V385H8.84233Z" fill="#006CA9"/>
<path d="M1191.26 310V298.494C1191.26 295.227 1191.9 291.889 1193.17 288.48C1194.45 285.071 1196.14 281.857 1198.23 278.839C1200.33 275.82 1202.6 273.299 1205.05 271.275L1215.07 277.188C1213.08 280.312 1211.44 283.58 1210.17 286.989C1208.92 290.398 1208.3 294.197 1208.3 298.388V310H1191.26ZM1218.16 310V298.494C1218.16 295.227 1218.8 291.889 1220.07 288.48C1221.35 285.071 1223.04 281.857 1225.13 278.839C1227.23 275.82 1229.5 273.299 1231.95 271.275L1241.97 277.188C1239.98 280.312 1238.34 283.58 1237.07 286.989C1235.82 290.398 1235.2 294.197 1235.2 298.388V310H1218.16ZM1255.12 385V368.381L1293.96 332.425C1297.26 329.229 1300.03 326.353 1302.26 323.796C1304.54 321.239 1306.26 318.736 1307.43 316.286C1308.6 313.8 1309.19 311.119 1309.19 308.242C1309.19 305.046 1308.46 302.294 1307.01 299.986C1305.55 297.642 1303.56 295.849 1301.04 294.606C1298.52 293.327 1295.66 292.688 1292.46 292.688C1289.13 292.688 1286.21 293.363 1283.73 294.712C1281.24 296.062 1279.32 297.997 1277.98 300.518C1276.63 303.04 1275.95 306.04 1275.95 309.521H1254.06C1254.06 302.383 1255.67 296.186 1258.91 290.93C1262.14 285.675 1266.66 281.609 1272.49 278.732C1278.31 275.856 1285.02 274.418 1292.62 274.418C1300.44 274.418 1307.24 275.803 1313.02 278.572C1318.85 281.307 1323.38 285.107 1326.61 289.972C1329.84 294.837 1331.46 300.412 1331.46 306.697C1331.46 310.817 1330.64 314.883 1329 318.896C1327.41 322.908 1324.55 327.365 1320.43 332.266C1316.31 337.131 1310.5 342.972 1303.01 349.79L1287.08 365.398V366.143H1332.89V385H1255.12ZM1368.84 275.909V287.415C1368.84 290.682 1368.2 294.02 1366.92 297.429C1365.67 300.803 1364.01 303.999 1361.91 307.017C1359.82 310 1357.53 312.539 1355.04 314.634L1345.03 308.722C1346.8 305.916 1348.36 302.809 1349.71 299.4C1351.1 295.991 1351.79 292.031 1351.79 287.521V275.909H1368.84ZM1395.63 275.909V287.415C1395.63 290.682 1394.99 294.02 1393.71 297.429C1392.47 300.803 1390.8 303.999 1388.7 307.017C1386.61 310 1384.3 312.539 1381.78 314.634L1371.77 308.722C1373.58 305.916 1375.16 302.809 1376.51 299.4C1377.89 295.991 1378.58 292.031 1378.58 287.521V275.909H1395.63Z" fill="#FA8F00"/>
<path d="M1089.68 390.966L1077.32 378.714L1118.76 337.273L1077.32 295.884L1089.68 283.58L1143.37 337.273L1089.68 390.966ZM1033.75 360.284V342.919H1126.17L1108.7 360.284H1033.75ZM1033.75 331.626V314.261H1108.7L1126.17 331.626H1033.75Z" fill="#82D1F5"/>
<line x1="667" y1="178.5" x2="984" y2="178.5" stroke="#737370" stroke-width="5"/>
<line x1="667" y1="656.5" x2="984" y2="656.5" stroke="#737370" stroke-width="5"/>
<path d="M212.259 871.795L177.102 1002.41H165.597L200.753 871.795H212.259ZM305.995 987.491C298.964 987.491 292.696 986.284 287.192 983.869C281.723 981.455 277.373 978.099 274.142 973.802C270.945 969.469 269.205 964.445 268.921 958.727H282.345C282.629 962.243 283.836 965.279 285.967 967.836C288.097 970.357 290.885 972.31 294.33 973.695C297.774 975.08 301.592 975.773 305.782 975.773C310.47 975.773 314.624 974.956 318.247 973.322C321.869 971.689 324.71 969.416 326.769 966.504C328.829 963.592 329.859 960.219 329.859 956.384C329.859 952.371 328.865 948.837 326.876 945.783C324.887 942.694 321.975 940.279 318.14 938.539C314.305 936.799 309.617 935.929 304.078 935.929H295.342V924.21H304.078C308.41 924.21 312.21 923.429 315.477 921.866C318.779 920.304 321.354 918.102 323.2 915.261C325.083 912.42 326.024 909.082 326.024 905.247C326.024 901.554 325.207 898.34 323.573 895.606C321.94 892.871 319.632 890.741 316.649 889.214C313.701 887.687 310.221 886.923 306.208 886.923C302.444 886.923 298.893 887.616 295.555 889.001C292.252 890.35 289.553 892.321 287.458 894.913C285.363 897.47 284.227 900.56 284.049 904.182H271.265C271.478 898.464 273.2 893.457 276.432 889.161C279.664 884.828 283.889 881.455 289.11 879.04C294.365 876.625 300.136 875.418 306.421 875.418C313.169 875.418 318.957 876.785 323.786 879.519C328.616 882.218 332.327 885.787 334.919 890.226C337.512 894.665 338.808 899.459 338.808 904.608C338.808 910.751 337.192 915.989 333.96 920.322C330.764 924.654 326.414 927.655 320.91 929.324V930.176C327.799 931.312 333.179 934.242 337.05 938.965C340.921 943.653 342.856 949.459 342.856 956.384C342.856 962.314 341.24 967.641 338.009 972.364C334.813 977.051 330.445 980.744 324.905 983.443C319.365 986.142 313.062 987.491 305.995 987.491ZM412.156 921.44V909.935H477.781V921.44H412.156ZM412.156 952.974V941.469H477.781V952.974H412.156ZM547.894 986V976.412L583.903 936.994C588.129 932.378 591.609 928.365 594.343 924.956C597.077 921.511 599.102 918.28 600.415 915.261C601.765 912.207 602.44 909.011 602.44 905.673C602.44 901.838 601.516 898.518 599.67 895.712C597.859 892.907 595.373 890.741 592.212 889.214C589.052 887.687 585.501 886.923 581.559 886.923C577.369 886.923 573.711 887.793 570.586 889.533C567.496 891.238 565.099 893.635 563.395 896.724C561.726 899.814 560.891 903.436 560.891 907.591H548.32C548.32 901.199 549.794 895.588 552.741 890.759C555.689 885.929 559.702 882.165 564.78 879.466C569.893 876.767 575.629 875.418 581.985 875.418C588.377 875.418 594.041 876.767 598.977 879.466C603.913 882.165 607.784 885.805 610.589 890.386C613.395 894.967 614.798 900.062 614.798 905.673C614.798 909.686 614.07 913.61 612.614 917.445C611.193 921.245 608.707 925.489 605.156 930.176C601.641 934.828 596.758 940.51 590.508 947.222L566.005 973.429V974.281H616.715V986H547.894ZM657.678 971.085L656.825 976.838C656.222 980.886 655.298 985.219 654.055 989.835C652.848 994.452 651.587 998.802 650.273 1002.89C648.96 1006.97 647.876 1010.22 647.024 1012.63H637.436C637.898 1010.36 638.501 1007.36 639.247 1003.63C639.993 999.903 640.739 995.73 641.484 991.114C642.266 986.533 642.905 981.845 643.402 977.051L644.041 971.085H657.678ZM712.529 987.491C704.504 987.491 697.668 985.308 692.021 980.94C686.375 976.536 682.061 970.162 679.078 961.817C676.095 953.436 674.603 943.315 674.603 931.455C674.603 919.665 676.095 909.597 679.078 901.252C682.096 892.871 686.428 886.479 692.075 882.076C697.757 877.637 704.575 875.418 712.529 875.418C720.484 875.418 727.284 877.637 732.931 882.076C738.612 886.479 742.945 892.871 745.928 901.252C748.946 909.597 750.455 919.665 750.455 931.455C750.455 943.315 748.964 953.436 745.981 961.817C742.998 970.162 738.683 976.536 733.037 980.94C727.391 985.308 720.555 987.491 712.529 987.491ZM712.529 975.773C720.484 975.773 726.663 971.937 731.066 964.267C735.47 956.597 737.671 945.659 737.671 931.455C737.671 922.009 736.659 913.965 734.635 907.325C732.646 900.684 729.77 895.624 726.006 892.143C722.277 888.663 717.785 886.923 712.529 886.923C704.646 886.923 698.485 890.812 694.046 898.589C689.607 906.33 687.387 917.286 687.387 931.455C687.387 940.901 688.382 948.926 690.37 955.531C692.359 962.136 695.218 967.161 698.946 970.606C702.71 974.05 707.238 975.773 712.529 975.773ZM806.279 987.491C798.254 987.491 791.418 985.308 785.771 980.94C780.125 976.536 775.811 970.162 772.828 961.817C769.845 953.436 768.353 943.315 768.353 931.455C768.353 919.665 769.845 909.597 772.828 901.252C775.846 892.871 780.178 886.479 785.825 882.076C791.507 877.637 798.325 875.418 806.279 875.418C814.234 875.418 821.034 877.637 826.681 882.076C832.362 886.479 836.695 892.871 839.678 901.252C842.696 909.597 844.205 919.665 844.205 931.455C844.205 943.315 842.714 953.436 839.731 961.817C836.748 970.162 832.433 976.536 826.787 980.94C821.141 985.308 814.305 987.491 806.279 987.491ZM806.279 975.773C814.234 975.773 820.413 971.937 824.816 964.267C829.22 956.597 831.421 945.659 831.421 931.455C831.421 922.009 830.409 913.965 828.385 907.325C826.396 900.684 823.52 895.624 819.756 892.143C816.027 888.663 811.535 886.923 806.279 886.923C798.396 886.923 792.235 890.812 787.796 898.589C783.357 906.33 781.137 917.286 781.137 931.455C781.137 940.901 782.132 948.926 784.12 955.531C786.109 962.136 788.968 967.161 792.696 970.606C796.46 974.05 800.988 975.773 806.279 975.773ZM870.013 986.852C867.385 986.852 865.131 985.911 863.248 984.029C861.366 982.147 860.425 979.892 860.425 977.264C860.425 974.636 861.366 972.381 863.248 970.499C865.131 968.617 867.385 967.676 870.013 967.676C872.641 967.676 874.896 968.617 876.778 970.499C878.66 972.381 879.601 974.636 879.601 977.264C879.601 979.004 879.157 980.602 878.27 982.058C877.417 983.514 876.263 984.686 874.807 985.574C873.387 986.426 871.789 986.852 870.013 986.852ZM911.322 986.852C908.694 986.852 906.439 985.911 904.557 984.029C902.675 982.147 901.734 979.892 901.734 977.264C901.734 974.636 902.675 972.381 904.557 970.499C906.439 968.617 908.694 967.676 911.322 967.676C913.95 967.676 916.205 968.617 918.087 970.499C919.969 972.381 920.91 974.636 920.91 977.264C920.91 979.004 920.466 980.602 919.578 982.058C918.726 983.514 917.572 984.686 916.116 985.574C914.695 986.426 913.097 986.852 911.322 986.852ZM952.631 986.852C950.003 986.852 947.748 985.911 945.866 984.029C943.983 982.147 943.042 979.892 943.042 977.264C943.042 974.636 943.983 972.381 945.866 970.499C947.748 968.617 950.003 967.676 952.631 967.676C955.258 967.676 957.513 968.617 959.395 970.499C961.278 972.381 962.219 974.636 962.219 977.264C962.219 979.004 961.775 980.602 960.887 982.058C960.035 983.514 958.881 984.686 957.425 985.574C956.004 986.426 954.406 986.852 952.631 986.852Z" fill="#737370"/>
<path d="M50.7102 987.491C45.0994 987.456 39.684 986.515 34.4638 984.668C29.2791 982.822 24.6271 979.821 20.5078 975.666C16.3885 971.511 13.1214 966.007 10.7067 959.153C8.32742 952.3 7.13778 943.884 7.13778 933.905C7.1733 924.743 8.22088 916.558 10.2805 909.349C12.3757 902.104 15.3587 895.961 19.2294 890.918C23.1357 885.876 27.8054 882.04 33.2386 879.413C38.6719 876.749 44.7621 875.418 51.5092 875.418C58.7891 875.418 65.2166 876.838 70.7919 879.679C76.3672 882.484 80.8416 886.302 84.2152 891.131C87.6243 895.961 89.6839 901.376 90.3942 907.378H67.6492C66.7614 903.578 64.897 900.595 62.0561 898.429C59.2152 896.263 55.6996 895.18 51.5092 895.18C44.407 895.18 39.0092 898.269 35.3161 904.448C31.6584 910.627 29.794 919.026 29.723 929.643H30.4688C32.1023 926.412 34.304 923.66 37.0739 921.387C39.8793 919.079 43.0575 917.321 46.6087 916.114C50.1953 914.871 53.9773 914.249 57.9545 914.249C64.4176 914.249 70.1705 915.776 75.2131 918.83C80.2557 921.849 84.233 926.004 87.1449 931.295C90.0568 936.586 91.5128 942.641 91.5128 949.459C91.5128 956.845 89.7905 963.415 86.3459 969.168C82.9368 974.92 78.1605 979.43 72.017 982.697C65.9091 985.929 58.8068 987.527 50.7102 987.491ZM50.6037 969.381C54.1548 969.381 57.3331 968.528 60.1385 966.824C62.9439 965.119 65.1456 962.811 66.7436 959.899C68.3416 956.987 69.1406 953.72 69.1406 950.098C69.1406 946.476 68.3416 943.227 66.7436 940.35C65.1811 937.474 63.0149 935.183 60.245 933.479C57.4751 931.774 54.3146 930.922 50.7635 930.922C48.1001 930.922 45.6321 931.419 43.3594 932.413C41.1222 933.408 39.1513 934.793 37.4467 936.568C35.7777 938.344 34.4638 940.403 33.505 942.747C32.5462 945.055 32.0668 947.523 32.0668 950.151C32.0668 953.667 32.8658 956.881 34.4638 959.793C36.0973 962.705 38.299 965.031 41.0689 966.771C43.8743 968.511 47.0526 969.381 50.6037 969.381Z" fill="#006CA9"/>
<path d="M1191.26 911V899.494C1191.26 896.227 1191.9 892.889 1193.17 889.48C1194.45 886.071 1196.14 882.857 1198.23 879.839C1200.33 876.82 1202.6 874.299 1205.05 872.275L1215.07 878.188C1213.08 881.312 1211.44 884.58 1210.17 887.989C1208.92 891.398 1208.3 895.197 1208.3 899.388V911H1191.26ZM1218.16 911V899.494C1218.16 896.227 1218.8 892.889 1220.07 889.48C1221.35 886.071 1223.04 882.857 1225.13 879.839C1227.23 876.82 1229.5 874.299 1231.95 872.275L1241.97 878.188C1239.98 881.312 1238.34 884.58 1237.07 887.989C1235.82 891.398 1235.2 895.197 1235.2 899.388V911H1218.16ZM1255.76 986V876.909H1327.99V895.925H1278.83V921.92H1323.2V940.936H1278.83V986H1255.76ZM1343.08 986V904.182H1365.77V986H1343.08ZM1354.48 893.635C1351.11 893.635 1348.21 892.516 1345.8 890.279C1343.42 888.006 1342.23 885.29 1342.23 882.129C1342.23 879.004 1343.42 876.323 1345.8 874.086C1348.21 871.813 1351.11 870.677 1354.48 870.677C1357.85 870.677 1360.73 871.813 1363.11 874.086C1365.52 876.323 1366.73 879.004 1366.73 882.129C1366.73 885.29 1365.52 888.006 1363.11 890.279C1360.73 892.516 1357.85 893.635 1354.48 893.635ZM1383.52 986V972.47L1423.58 922.879V922.293H1384.91V904.182H1450.91V918.937L1413.3 967.303V967.889H1452.29V986H1383.52ZM1469.22 986V972.47L1509.27 922.879V922.293H1470.6V904.182H1536.6V918.937L1498.99 967.303V967.889H1537.98V986H1469.22ZM1574.35 876.909V888.415C1574.35 891.682 1573.71 895.02 1572.44 898.429C1571.19 901.803 1569.52 904.999 1567.43 908.017C1565.33 911 1563.04 913.539 1560.56 915.634L1550.54 909.722C1552.32 906.916 1553.88 903.809 1555.23 900.4C1556.62 896.991 1557.31 893.031 1557.31 888.521V876.909H1574.35ZM1601.15 876.909V888.415C1601.15 891.682 1600.51 895.02 1599.23 898.429C1597.99 901.803 1596.32 904.999 1594.22 908.017C1592.13 911 1589.82 913.539 1587.3 915.634L1577.28 909.722C1579.09 906.916 1580.67 903.809 1582.02 900.4C1583.41 896.991 1584.1 893.031 1584.1 888.521V876.909H1601.15Z" fill="#FA8F00"/>
<path d="M1089.68 991.966L1077.32 979.714L1118.76 938.273L1077.32 896.884L1089.68 884.58L1143.37 938.273L1089.68 991.966ZM1033.75 961.284V943.919H1126.17L1108.7 961.284H1033.75ZM1033.75 932.626V915.261H1108.7L1126.17 932.626H1033.75Z" fill="#82D1F5"/>
<line x1="667" y1="1018.5" x2="984" y2="1018.5" stroke="#737370" stroke-width="5"/>
<line x1="667" y1="417.5" x2="984" y2="417.5" stroke="#737370" stroke-width="5"/>
</svg>
